<svg width="32" height="32" viewBox="0 0 32 32" fill="none" xmlns="http://www.w3.org/2000/svg">
<path d="M4 1C4 0.447715 4.44772 0 5 0H21L24.5 3.5L28 7V31C28 31.5523 27.5523 32 27 32H5C4.44772 32 4 31.5523 4 31V1Z" fill="#662BC9"/>
<path d="M21 0L28 7H21V0Z" fill="#C1A7EC"/>
<path d="M3.07043 17.4907V11.0923H3.0028L0.144531 12.0986V13.1621L1.80359 12.582V17.4907H3.07043Z" fill="white"/>
<path d="M8.61565 17.4907V11.0923H8.54802L5.68975 12.0986V13.1621L7.34881 12.582V17.4907H8.61565Z" fill="white"/>
<path d="M15.3646 15.0562V13.5269C15.3646 13.1138 15.315 12.7505 15.2158 12.437C15.1166 12.1206 14.9754 11.8555 14.792 11.6416C14.6057 11.4307 14.3803 11.271 14.1158 11.1626C13.8513 11.0542 13.5538 11 13.2231 11C12.8955 11 12.5995 11.0542 12.335 11.1626C12.0735 11.271 11.8511 11.4307 11.6678 11.6416C11.4814 11.8555 11.3387 12.1206 11.2395 12.437C11.1403 12.7505 11.0907 13.1138 11.0907 13.5269V15.0562C11.0907 15.4692 11.1403 15.834 11.2395 16.1504C11.3417 16.4639 11.4859 16.7261 11.6723 16.937C11.8556 17.1509 12.0795 17.312 12.344 17.4204C12.6085 17.5288 12.9046 17.583 13.2322 17.583C13.5628 17.583 13.8603 17.5288 14.1248 17.4204C14.3893 17.312 14.6132 17.1509 14.7965 16.937C14.9799 16.7261 15.1196 16.4639 15.2158 16.1504C15.315 15.834 15.3646 15.4692 15.3646 15.0562ZM12.353 14.5288C12.353 14.438 12.353 14.3691 12.353 14.3223C12.353 14.2754 12.353 14.1816 12.353 14.041V13.3335C12.353 13.0962 12.3711 12.8911 12.4071 12.7183C12.4462 12.5454 12.5048 12.4048 12.583 12.2964C12.6551 12.1938 12.7438 12.1177 12.849 12.0679C12.9572 12.0151 13.0819 11.9888 13.2231 11.9888C13.3494 11.9888 13.4621 12.0093 13.5613 12.0503C13.6635 12.0884 13.7491 12.1484 13.8182 12.2305C13.9084 12.333 13.976 12.4707 14.0211 12.6436C14.0692 12.8135 14.0963 13.0186 14.1023 13.2588L12.353 14.5288ZM14.1023 15.2407C14.1023 15.478 14.0827 15.6846 14.0437 15.8604C14.0076 16.0332 13.952 16.1753 13.8768 16.2866C13.8047 16.3921 13.7146 16.4712 13.6064 16.5239C13.4982 16.5737 13.3734 16.5986 13.2322 16.5986C13.0789 16.5986 12.9466 16.5693 12.8354 16.5107C12.7242 16.4521 12.6326 16.3628 12.5604 16.2427C12.4973 16.1431 12.4477 16.0186 12.4116 15.8691C12.3786 15.7197 12.3591 15.5483 12.353 15.355L14.1023 14.0894C14.1023 14.1743 14.1023 14.2402 14.1023 14.2871C14.1023 14.3311 14.1023 14.4014 14.1023 14.498V15.2407Z" fill="white"/>
<path d="M19.7061 17.4907V11.0923H19.6385L16.7802 12.0986V13.1621L18.4393 12.582V17.4907H19.7061Z" fill="white"/>
<path d="M26.455 15.0562V13.5269C26.455 13.1138 26.4054 12.7505 26.3063 12.437C26.2071 12.1206 26.0658 11.8555 25.8825 11.6416C25.6961 11.4307 25.4707 11.271 25.2062 11.1626C24.9417 11.0542 24.6442 11 24.3136 11C23.986 11 23.6899 11.0542 23.4255 11.1626C23.164 11.271 22.9416 11.4307 22.7582 11.6416C22.5719 11.8555 22.4291 12.1206 22.3299 12.437C22.2308 12.7505 22.1812 13.1138 22.1812 13.5269V15.0562C22.1812 15.4692 22.2308 15.834 22.3299 16.1504C22.4321 16.4639 22.5764 16.7261 22.7627 16.937C22.9461 17.1509 23.17 17.312 23.4345 17.4204C23.699 17.5288 23.995 17.583 24.3226 17.583C24.6532 17.583 24.9508 17.5288 25.2153 17.4204C25.4797 17.312 25.7037 17.1509 25.887 16.937C26.0703 16.7261 26.2101 16.4639 26.3063 16.1504C26.4054 15.834 26.455 15.4692 26.455 15.0562ZM23.4435 14.5288C23.4435 14.438 23.4435 14.3691 23.4435 14.3223C23.4435 14.2754 23.4435 14.1816 23.4435 14.041V13.3335C23.4435 13.0962 23.4615 12.8911 23.4976 12.7183C23.5367 12.5454 23.5953 12.4048 23.6734 12.2964C23.7455 12.1938 23.8342 12.1177 23.9394 12.0679C24.0476 12.0151 24.1723 11.9888 24.3136 11.9888C24.4398 11.9888 24.5525 12.0093 24.6517 12.0503C24.7539 12.0884 24.8396 12.1484 24.9087 12.2305C24.9989 12.333 25.0665 12.4707 25.1116 12.6436C25.1597 12.8135 25.1867 13.0186 25.1927 13.2588L23.4435 14.5288ZM25.1927 15.2407C25.1927 15.478 25.1732 15.6846 25.1341 15.8604C25.098 16.0332 25.0424 16.1753 24.9673 16.2866C24.8952 16.3921 24.805 16.4712 24.6968 16.5239C24.5886 16.5737 24.4639 16.5986 24.3226 16.5986C24.1693 16.5986 24.0371 16.5693 23.9259 16.5107C23.8147 16.4521 23.723 16.3628 23.6509 16.2427C23.5878 16.1431 23.5382 16.0186 23.5021 15.8691C23.469 15.7197 23.4495 15.5483 23.4435 15.355L25.1927 14.0894C25.1927 14.1743 25.1927 14.2402 25.1927 14.2871C25.1927 14.3311 25.1927 14.4014 25.1927 14.498V15.2407Z" fill="white"/>
<path d="M30.7965 17.4907V11.0923H30.7289L27.8706 12.0986V13.1621L29.5297 12.582V17.4907H30.7965Z" fill="white"/>
<path d="M4.27388 23.5469V22.0176C4.27388 21.6045 4.22429 21.2412 4.12511 20.9277C4.02592 20.6113 3.88466 20.3462 3.70132 20.1323C3.51498 19.9214 3.28957 19.7617 3.02508 19.6533C2.76059 19.5449 2.46304 19.4907 2.13243 19.4907C1.80483 19.4907 1.50878 19.5449 1.24429 19.6533C0.982812 19.7617 0.760402 19.9214 0.577064 20.1323C0.39072 20.3462 0.247957 20.6113 0.148774 20.9277C0.0495914 21.2412 0 21.6045 0 22.0176V23.5469C0 23.96 0.0495914 24.3247 0.148774 24.6411C0.250963 24.9546 0.395229 25.2168 0.581572 25.4277C0.76491 25.6416 0.988823 25.8027 1.25331 25.9111C1.5178 26.0195 1.81384 26.0737 2.14145 26.0737C2.47206 26.0737 2.76961 26.0195 3.03409 25.9111C3.29858 25.8027 3.52249 25.6416 3.70583 25.4277C3.88917 25.2168 4.02893 24.9546 4.12511 24.6411C4.22429 24.3247 4.27388 23.96 4.27388 23.5469ZM1.26233 23.0195C1.26233 22.9287 1.26233 22.8599 1.26233 22.813C1.26233 22.7661 1.26233 22.6724 1.26233 22.5317V21.8242C1.26233 21.5869 1.28036 21.3818 1.31643 21.209C1.3555 21.0361 1.41411 20.8955 1.49225 20.7871C1.56438 20.6846 1.65305 20.6084 1.75824 20.5586C1.86644 20.5059 1.99117 20.4795 2.13243 20.4795C2.25866 20.4795 2.37137 20.5 2.47056 20.541C2.57274 20.5791 2.6584 20.6392 2.72753 20.7212C2.8177 20.8237 2.88532 20.9614 2.9304 21.1343C2.97849 21.3042 3.00554 21.5093 3.01155 21.7495L1.26233 23.0195ZM3.01155 23.7314C3.01155 23.9688 2.99202 24.1753 2.95294 24.3511C2.91688 24.5239 2.86128 24.666 2.78614 24.7773C2.714 24.8828 2.62384 24.9619 2.51564 25.0146C2.40744 25.0645 2.28271 25.0894 2.14145 25.0894C1.98817 25.0894 1.85592 25.0601 1.74472 25.0015C1.63351 24.9429 1.54184 24.8535 1.46971 24.7334C1.40659 24.6338 1.357 24.5093 1.32094 24.3599C1.28787 24.2104 1.26834 24.0391 1.26233 23.8457L3.01155 22.5801C3.01155 22.665 3.01155 22.731 3.01155 22.7778C3.01155 22.8218 3.01155 22.8921 3.01155 22.9888V23.7314Z" fill="white"/>
<path d="M8.61539 25.9814V19.583H8.54776L5.68949 20.5894V21.6528L7.34855 21.0728V25.9814H8.61539Z" fill="white"/>
<path d="M15.3643 23.5469V22.0176C15.3643 21.6045 15.3147 21.2412 15.2156 20.9277C15.1164 20.6113 14.9751 20.3462 14.7918 20.1323C14.6054 19.9214 14.38 19.7617 14.1155 19.6533C13.851 19.5449 13.5535 19.4907 13.2229 19.4907C12.8953 19.4907 12.5992 19.5449 12.3347 19.6533C12.0733 19.7617 11.8509 19.9214 11.6675 20.1323C11.4812 20.3462 11.3384 20.6113 11.2392 20.9277C11.14 21.2412 11.0904 21.6045 11.0904 22.0176V23.5469C11.0904 23.96 11.14 24.3247 11.2392 24.6411C11.3414 24.9546 11.4857 25.2168 11.672 25.4277C11.8554 25.6416 12.0793 25.8027 12.3438 25.9111C12.6082 26.0195 12.9043 26.0737 13.2319 26.0737C13.5625 26.0737 13.8601 26.0195 14.1245 25.9111C14.389 25.8027 14.6129 25.6416 14.7963 25.4277C14.9796 25.2168 15.1194 24.9546 15.2156 24.6411C15.3147 24.3247 15.3643 23.96 15.3643 23.5469ZM12.3528 23.0195C12.3528 22.9287 12.3528 22.8599 12.3528 22.813C12.3528 22.7661 12.3528 22.6724 12.3528 22.5317V21.8242C12.3528 21.5869 12.3708 21.3818 12.4069 21.209C12.4459 21.0361 12.5046 20.8955 12.5827 20.7871C12.6548 20.6846 12.7435 20.6084 12.8487 20.5586C12.9569 20.5059 13.0816 20.4795 13.2229 20.4795C13.3491 20.4795 13.4618 20.5 13.561 20.541C13.6632 20.5791 13.7489 20.6392 13.818 20.7212C13.9081 20.8237 13.9758 20.9614 14.0209 21.1343C14.0689 21.3042 14.096 21.5093 14.102 21.7495L12.3528 23.0195ZM14.102 23.7314C14.102 23.9688 14.0825 24.1753 14.0434 24.3511C14.0073 24.5239 13.9517 24.666 13.8766 24.7773C13.8045 24.8828 13.7143 24.9619 13.6061 25.0146C13.4979 25.0645 13.3732 25.0894 13.2319 25.0894C13.0786 25.0894 12.9464 25.0601 12.8352 25.0015C12.724 24.9429 12.6323 24.8535 12.5602 24.7334C12.497 24.6338 12.4475 24.5093 12.4114 24.3599C12.3783 24.2104 12.3588 24.0391 12.3528 23.8457L14.102 22.5801C14.102 22.665 14.102 22.731 14.102 22.7778C14.102 22.8218 14.102 22.8921 14.102 22.9888V23.7314Z" fill="white"/>
<path d="M20.9096 23.5469V22.0176C20.9096 21.6045 20.86 21.2412 20.7608 20.9277C20.6616 20.6113 20.5203 20.3462 20.337 20.1323C20.1507 19.9214 19.9252 19.7617 19.6608 19.6533C19.3963 19.5449 19.0987 19.4907 18.7681 19.4907C18.4405 19.4907 18.1445 19.5449 17.88 19.6533C17.6185 19.7617 17.3961 19.9214 17.2127 20.1323C17.0264 20.3462 16.8836 20.6113 16.7844 20.9277C16.6853 21.2412 16.6357 21.6045 16.6357 22.0176V23.5469C16.6357 23.96 16.6853 24.3247 16.7844 24.6411C16.8866 24.9546 17.0309 25.2168 17.2172 25.4277C17.4006 25.6416 17.6245 25.8027 17.889 25.9111C18.1535 26.0195 18.4495 26.0737 18.7771 26.0737C19.1077 26.0737 19.4053 26.0195 19.6698 25.9111C19.9343 25.8027 20.1582 25.6416 20.3415 25.4277C20.5248 25.2168 20.6646 24.9546 20.7608 24.6411C20.86 24.3247 20.9096 23.96 20.9096 23.5469ZM17.898 23.0195C17.898 22.9287 17.898 22.8599 17.898 22.813C17.898 22.7661 17.898 22.6724 17.898 22.5317V21.8242C17.898 21.5869 17.916 21.3818 17.9521 21.209C17.9912 21.0361 18.0498 20.8955 18.1279 20.7871C18.2001 20.6846 18.2887 20.6084 18.3939 20.5586C18.5021 20.5059 18.6268 20.4795 18.7681 20.4795C18.8943 20.4795 19.007 20.5 19.1062 20.541C19.2084 20.5791 19.2941 20.6392 19.3632 20.7212C19.4534 20.8237 19.521 20.9614 19.5661 21.1343C19.6142 21.3042 19.6412 21.5093 19.6472 21.7495L17.898 23.0195ZM19.6472 23.7314C19.6472 23.9688 19.6277 24.1753 19.5886 24.3511C19.5526 24.5239 19.4969 24.666 19.4218 24.7773C19.3497 24.8828 19.2595 24.9619 19.1513 25.0146C19.0431 25.0645 18.9184 25.0894 18.7771 25.0894C18.6238 25.0894 18.4916 25.0601 18.3804 25.0015C18.2692 24.9429 18.1775 24.8535 18.1054 24.7334C18.0423 24.6338 17.9927 24.5093 17.9566 24.3599C17.9235 24.2104 17.904 24.0391 17.898 23.8457L19.6472 22.5801C19.6472 22.665 19.6472 22.731 19.6472 22.7778C19.6472 22.8218 19.6472 22.8921 19.6472 22.9888V23.7314Z" fill="white"/>
<path d="M25.2511 25.9814V19.583H25.1834L22.3252 20.5894V21.6528L23.9842 21.0728V25.9814H25.2511Z" fill="white"/>
<path d="M32 23.5469V22.0176C32 21.6045 31.9504 21.2412 31.8512 20.9277C31.752 20.6113 31.6108 20.3462 31.4274 20.1323C31.2411 19.9214 31.0157 19.7617 30.7512 19.6533C30.4867 19.5449 30.1892 19.4907 29.8586 19.4907C29.5309 19.4907 29.2349 19.5449 28.9704 19.6533C28.7089 19.7617 28.4865 19.9214 28.3032 20.1323C28.1168 20.3462 27.9741 20.6113 27.8749 20.9277C27.7757 21.2412 27.7261 21.6045 27.7261 22.0176V23.5469C27.7261 23.96 27.7757 24.3247 27.8749 24.6411C27.9771 24.9546 28.1214 25.2168 28.3077 25.4277C28.491 25.6416 28.7149 25.8027 28.9794 25.9111C29.2439 26.0195 29.54 26.0737 29.8676 26.0737C30.1982 26.0737 30.4957 26.0195 30.7602 25.9111C31.0247 25.8027 31.2486 25.6416 31.432 25.4277C31.6153 25.2168 31.7551 24.9546 31.8512 24.6411C31.9504 24.3247 32 23.96 32 23.5469ZM28.9884 23.0195C28.9884 22.9287 28.9884 22.8599 28.9884 22.813C28.9884 22.7661 28.9884 22.6724 28.9884 22.5317V21.8242C28.9884 21.5869 29.0065 21.3818 29.0425 21.209C29.0816 21.0361 29.1402 20.8955 29.2184 20.7871C29.2905 20.6846 29.3792 20.6084 29.4844 20.5586C29.5926 20.5059 29.7173 20.4795 29.8586 20.4795C29.9848 20.4795 30.0975 20.5 30.1967 20.541C30.2989 20.5791 30.3845 20.6392 30.4537 20.7212C30.5438 20.8237 30.6114 20.9614 30.6565 21.1343C30.7046 21.3042 30.7317 21.5093 30.7377 21.7495L28.9884 23.0195ZM30.7377 23.7314C30.7377 23.9688 30.7181 24.1753 30.6791 24.3511C30.643 24.5239 30.5874 24.666 30.5123 24.7773C30.4401 24.8828 30.35 24.9619 30.2418 25.0146C30.1336 25.0645 30.0088 25.0894 29.8676 25.0894C29.7143 25.0894 29.582 25.0601 29.4708 25.0015C29.3596 24.9429 29.268 24.8535 29.1958 24.7334C29.1327 24.6338 29.0831 24.5093 29.0471 24.3599C29.014 24.2104 28.9945 24.0391 28.9884 23.8457L30.7377 22.5801C30.7377 22.665 30.7377 22.731 30.7377 22.7778C30.7377 22.8218 30.7377 22.8921 30.7377 22.9888V23.7314Z" fill="white"/>
</svg>
