<svg width="32" height="32" viewBox="0 0 32 32" fill="none" xmlns="http://www.w3.org/2000/svg">
<rect y="5" width="32" height="27" rx="4" fill="#5222A1"/>
<path d="M21.4791 9.8669V14.1087C21.4791 14.354 21.3817 14.5893 21.2082 14.7628L19.9001 16.0709C19.7266 16.2444 19.6291 16.4797 19.6291 16.725V25.9012C19.6291 26.4121 19.215 26.8263 18.7041 26.8263H16.8541C16.3433 26.8263 15.9291 26.4121 15.9291 25.9012V25.3594C15.9291 25.1141 15.8317 24.8788 15.6582 24.7053L14.35 23.3972C14.1766 23.2237 14.0791 22.9885 14.0791 22.7432V9.8669C14.0791 9.35603 14.4932 8.94189 15.0041 8.94189H20.5541C21.065 8.94189 21.4791 9.35603 21.4791 9.8669V9.8669Z" fill="white"/>
<path d="M18.7055 26.8267H18.1177C17.6068 26.8267 17.1927 26.4126 17.1927 25.9017V24.9719C17.1927 24.7265 17.0952 24.4913 16.9218 24.3178L15.6137 23.0097C15.4402 22.8362 15.3428 22.6009 15.3428 22.3556V9.86739C15.3428 9.35652 15.7569 8.94238 16.2678 8.94238H20.5555C21.0664 8.94238 21.4805 9.35652 21.4805 9.86739V14.1092C21.4805 14.3545 21.383 14.5898 21.2096 14.7633L19.9014 16.0714C19.7279 16.2449 19.6305 16.4801 19.6305 16.7255V25.9017C19.6304 26.4126 19.2163 26.8267 18.7055 26.8267V26.8267Z" fill="white"/>
<path d="M23.4366 0H12.1178C11.5004 0 11 0.500425 11 1.11777V10.3717C11 10.9891 11.5004 11.4895 12.1178 11.4895H23.4366C24.054 11.4895 24.5544 10.9891 24.5544 10.3717V1.11777C24.5544 0.500425 24.054 0 23.4366 0ZM21.5423 4.75052C21.5423 4.90483 21.4172 5.02996 21.2629 5.02996H14.2915C14.1372 5.02996 14.0121 4.90483 14.0121 4.75052V2.29729C14.0121 2.14299 14.1372 2.01785 14.2915 2.01785H21.2629C21.4172 2.01785 21.5423 2.14299 21.5423 2.29729V4.75052Z" fill="#A27CE3"/>
<path fill-rule="evenodd" clip-rule="evenodd" d="M6 15C6 15.5523 6.44772 16 7 16C7.55228 16 8 15.5523 8 15C8 14.4477 7.55228 14 7 14C6.44772 14 6 14.4477 6 15ZM5 15C5 16.1046 5.89543 17 7 17C7.93192 17 8.71497 16.3626 8.93699 15.5H16V14.5H8.93699C8.71497 13.6374 7.93192 13 7 13C5.89543 13 5 13.8954 5 15Z" fill="white"/>
<path fill-rule="evenodd" clip-rule="evenodd" d="M9 21C9 21.5523 9.44772 22 10 22C10.5523 22 11 21.5523 11 21C11 20.4477 10.5523 20 10 20C9.44772 20 9 20.4477 9 21ZM8 21C8 22.1046 8.89543 23 10 23C10.9319 23 11.715 22.3626 11.937 21.5H19V20.5H11.937C11.715 19.6374 10.9319 19 10 19C8.89543 19 8 19.8954 8 21Z" fill="white"/>
<path fill-rule="evenodd" clip-rule="evenodd" d="M27 18C27 18.5523 26.5523 19 26 19C25.4477 19 25 18.5523 25 18C25 17.4477 25.4477 17 26 17C26.5523 17 27 17.4477 27 18ZM28 18C28 19.1046 27.1046 20 26 20C25.0681 20 24.285 19.3626 24.063 18.5H18V17.5H24.063C24.285 16.6374 25.0681 16 26 16C27.1046 16 28 16.8954 28 18Z" fill="white"/>
<path fill-rule="evenodd" clip-rule="evenodd" d="M24.5 23C24.5 23.5523 24.0523 24 23.5 24C22.9477 24 22.5 23.5523 22.5 23C22.5 22.4477 22.9477 22 23.5 22C24.0523 22 24.5 22.4477 24.5 23ZM25.5 23C25.5 24.1046 24.6046 25 23.5 25C22.5681 25 21.785 24.3626 21.563 23.5H19V22.5H21.563C21.785 21.6374 22.5681 21 23.5 21C24.6046 21 25.5 21.8954 25.5 23Z" fill="white"/>
</svg>
